<?xml version="1.0" standalone="no"?>
<!DOCTYPE svg PUBLIC "-//W3C//DTD SVG 1.1//EN" "http://www.w3.org/Graphics/SVG/1.1/DTD/svg11.dtd" >
<svg xmlns="http://www.w3.org/2000/svg">
<metadata>Generated by IcoMoon</metadata>
<defs>
<font id="icomoon" horiz-adv-x="1024">
<font-face units-per-em="1024" ascent="960" descent="-64" />
<missing-glyph horiz-adv-x="1024" />
<glyph unicode="&#x20;" horiz-adv-x="512" d="" />
<glyph unicode="&#xe900;" glyph-name="avatar" d="M895.996 63.987h-213.333v-128h236.629c27.763 0.034 54.383 11.081 74.014 30.72s30.665 46.259 30.69 74.027v236.587h-128v-213.333zM128 832h213.333v128h-236.587c-27.773-0.023-54.403-11.066-74.042-30.705s-30.682-46.269-30.705-74.042v-236.587h128v213.333zM128 277.321h-128v-236.587c0.023-27.772 11.066-54.404 30.705-74.044 19.639-19.635 46.269-30.682 74.042-30.703h236.587v128h-213.333v213.333zM919.292 960h-236.629v-128h213.333v-213.333h128v236.587c-0.026 27.766-11.059 54.389-30.69 74.027s-46.251 30.686-74.014 30.72v0zM511.996 490.654c82.475 0 149.333 66.859 149.333 149.333s-66.859 149.333-149.333 149.333c-82.475 0-149.334-66.859-149.334-149.333s66.86-149.333 149.334-149.333zM256 319.987v-170.667h512v170.667c0 22.63-8.99 44.335-24.994 60.339s-37.709 24.994-60.339 24.994h-341.333c-22.632 0-44.337-8.99-60.34-24.994s-24.994-37.709-24.994-60.339z" />
<glyph unicode="&#xe901;" glyph-name="lock" d="M810.671 618.683v36.224c0 79.212-31.467 155.178-87.479 211.189-56.009 56.011-131.977 87.477-211.187 87.477-79.215 0-155.18-31.467-211.191-87.477s-87.477-131.978-87.477-211.189v-36.224h-128v-554.666c0-33.95 13.486-66.505 37.49-90.509s56.562-37.491 90.51-37.491h597.335c33.946 0 66.505 13.487 90.509 37.491s37.491 56.559 37.491 90.509v554.666h-128zM341.336 654.906c0 45.264 17.981 88.673 49.987 120.68s75.416 49.987 120.681 49.987c45.261 0 88.67-17.981 120.678-49.987 32.004-32.006 49.988-75.416 49.988-120.68v-36.224h-341.335v36.224zM213.336 64.017v426.667h597.335v-426.667h-597.335zM597.338 362.684h-170.667v-128h170.667v128z" />
<glyph unicode="&#xe902;" glyph-name="delete" d="M938.675 789.333h-213.333v85.333c0 22.632-8.994 44.337-24.994 60.34-16.004 16.003-37.709 24.994-60.339 24.994h-256.002c-22.632 0-44.337-8.99-60.34-24.994s-24.994-37.708-24.994-60.34v-85.333h-213.333v-85.333h85.333v-640c0-33.946 13.486-66.505 37.49-90.509s56.562-37.491 90.51-37.491h426.669c33.946 0 66.505 13.487 90.509 37.491s37.491 56.563 37.491 90.509v640h85.333v85.333zM384.006 874.667h256.002v-85.333h-256.002v85.333zM768.009 64c0-11.315-4.497-22.17-12.497-30.17-8.004-8-18.854-12.497-30.17-12.497h-426.669c-11.316 0-22.168 4.497-30.17 12.497s-12.497 18.854-12.497 30.17v640h512.002v-640zM469.333 533.359h-85.333v-341.334h85.333v341.334zM640.013 533.359h-85.333v-341.334h85.333v341.334z" />
<glyph unicode="&#xe903;" glyph-name="show" d="M992.718 558.607c-38.504 63.051-87.072 119.37-143.777 166.722l119.422 119.422c16.364 16.944 15.894 43.944-1.050 60.308-16.528 15.964-42.732 15.964-59.26 0l-129.872-130.042c-80.508 47.818-172.548 72.743-266.183 72.079-264.052 0-414.524-180.755-480.718-288.491-41.709-67.461-41.709-152.701 0-220.164 38.504-63.051 87.072-119.37 143.777-166.722l-119.422-119.422c-16.944-16.364-17.414-43.366-1.050-60.308 16.364-16.944 43.366-17.414 60.308-1.050 0.356 0.344 0.706 0.694 1.050 1.050l130.17 130.17c80.408-47.812 172.338-72.777 265.885-72.207 264.052 0 414.524 180.755 480.718 288.491 41.711 67.461 41.711 152.701 0.002 220.164zM256.095 448.524c-0.242 141.098 113.942 255.675 255.039 255.917 53.386 0.092 105.461-16.544 148.907-47.568l-61.929-61.929c-25.998 15.678-55.753 24.035-86.112 24.183-94.221 0-170.603-76.382-170.603-170.603 0.148-30.359 8.505-60.114 24.183-86.112l-61.929-61.929c-30.925 43.17-47.554 94.939-47.556 148.041zM512 192.619c-53.102 0.002-104.871 16.632-148.041 47.556l61.929 61.929c25.998-15.678 55.753-24.035 86.112-24.183 94.221 0 170.603 76.382 170.603 170.603-0.148 30.359-8.505 60.114-24.183 86.112l61.929 61.929c81.996-114.825 55.383-274.382-59.442-356.378-43.446-31.024-95.521-47.66-148.907-47.568z" />
<glyph unicode="&#xe904;" glyph-name="hide" d="M682.603 448c0-94.221-76.381-170.603-170.603-170.603s-170.603 76.381-170.603 170.603c0 94.221 76.381 170.603 170.603 170.603s170.603-76.381 170.603-170.603zM992.718 558.081c-66.151 107.736-216.624 288.491-480.718 288.491s-414.566-180.755-480.718-288.491c-41.709-67.461-41.709-152.701 0-220.164 66.151-107.736 216.624-288.491 480.718-288.491s414.566 180.755 480.718 288.491c41.709 67.463 41.709 152.703 0 220.164zM512 192.095c-141.332 0-255.905 114.573-255.905 255.905s114.573 255.905 255.905 255.905 255.905-114.573 255.905-255.905c-0.142-141.274-114.631-255.763-255.905-255.905z" />
<glyph unicode="&#xe905;" glyph-name="application" d="M512 533.333c-33.946 0-66.505 13.486-90.51 37.49s-37.49 56.562-37.49 90.51c0 33.948 13.486 66.505 37.49 90.51s56.564 37.49 90.51 37.49c33.946 0 66.505-13.486 90.509-37.49s37.491-56.562 37.491-90.51c0-33.948-13.487-66.505-37.491-90.51s-56.563-37.49-90.509-37.49zM382.635 309.376c8.774 27.413 26.030 51.328 49.276 68.297 23.249 16.969 51.285 26.112 80.068 26.112s56.819-9.143 80.068-26.112c23.245-16.969 40.503-40.883 49.276-68.297 2.829-10.965 9.899-20.356 19.652-26.112 9.754-5.751 21.393-7.394 32.358-4.565s20.356 9.899 26.112 19.652c5.751 9.754 7.394 21.393 4.565 32.358-55.936 211.072-368.213 210.987-423.979 0-1.54-5.47-1.973-11.191-1.273-16.828s2.52-11.081 5.351-16.004c2.832-4.928 6.618-9.237 11.139-12.681 4.52-3.439 9.681-5.948 15.182-7.369s11.23-1.728 16.852-0.905c5.622 0.823 11.022 2.761 15.885 5.7s9.089 6.818 12.432 11.413c3.343 4.591 5.734 9.809 7.035 15.339zM512.384-49.707c-21.052-0.013-41.37 7.718-57.088 21.717l-159.915 134.656h-124.715c-45.264 0-88.673 17.98-120.68 49.988-32.006 32.004-49.987 75.413-49.987 120.678v512c0 45.264 17.981 88.673 49.987 120.68s75.416 49.987 120.68 49.987h682.667c45.265 0 88.674-17.981 120.678-49.987 32.009-32.006 49.988-75.416 49.988-120.68v-512c0-45.265-17.98-88.674-49.988-120.678-32.004-32.009-75.413-49.988-120.678-49.988h-121.728l-164.139-135.68c-15.206-13.41-34.807-20.774-55.083-20.693zM170.667 874.667c-22.632 0-44.337-8.99-60.34-24.994s-24.994-37.708-24.994-60.34v-512c0-22.63 8.99-44.335 24.994-60.339s37.708-24.994 60.34-24.994h140.331c10.054 0 19.786-3.55 27.477-10.027l172.629-145.493 178.005 145.749c7.65 6.319 17.259 9.771 27.179 9.771h137.045c22.63 0 44.335 8.99 60.339 24.994s24.994 37.709 24.994 60.339v512c0 22.632-8.99 44.337-24.994 60.34s-37.709 24.994-60.339 24.994h-682.667z" />
<glyph unicode="&#xe906;" glyph-name="course" d="M947.2 867.711c-23.987 20.056-52.092 34.586-82.325 42.557s-61.85 9.189-92.608 3.566l-163.072-29.611c-37.649-6.914-71.881-26.284-97.195-54.997-25.378 28.763-59.708 48.137-97.451 54.997l-162.816 29.611c-30.756 5.628-62.373 4.427-92.613-3.519s-58.364-22.441-82.381-42.461c-24.017-20.020-43.34-45.073-56.601-73.389s-20.136-59.199-20.138-90.466v-460.5c0.002-49.954 17.535-98.325 49.542-136.678s76.458-64.26 125.605-73.199l268.203-48.768c45.397-8.252 91.904-8.252 137.301 0l268.416 48.768c49.109 8.986 93.508 34.91 125.474 73.259 31.962 38.349 49.468 86.694 49.459 136.619v460.5c0.021 31.255-6.852 62.131-20.126 90.428-13.278 28.297-32.627 53.319-56.674 73.284zM469.333 67.072c-3.584 0.512-7.168 1.109-10.752 1.749l-268.16 48.725c-29.493 5.363-56.167 20.911-75.371 43.93-19.205 23.014-29.722 52.045-29.717 82.022v460.5c0 33.948 13.486 66.505 37.49 90.51s56.562 37.49 90.51 37.49c7.727-0.019 15.436-0.718 23.040-2.091l162.987-29.867c19.61-3.589 37.346-13.929 50.125-29.229 12.783-15.299 19.806-34.59 19.849-54.526v-649.215zM938.667 243.499c0.004-29.978-10.513-59.008-29.717-82.022-19.204-23.019-45.879-38.566-75.371-43.93l-268.16-48.725c-3.584-0.64-7.168-1.237-10.752-1.749v649.215c-0.004 19.984 7.010 39.336 19.81 54.681 12.804 15.345 30.588 25.71 50.249 29.287l163.029 29.867c18.462 3.359 37.44 2.617 55.582-2.172 18.146-4.79 35.012-13.51 49.412-25.545s25.975-27.087 33.911-44.093c7.936-17.006 12.036-35.548 12.006-54.313v-460.5z" />
<glyph unicode="&#xe907;" glyph-name="check" d="M330.632 78.394c-29.067-0.012-56.944 11.541-77.48 32.112l-234.248 234.161c-25.205 25.213-25.205 66.084 0 91.297v0c25.213 25.205 66.084 25.205 91.297 0l220.431-220.431 583.167 583.167c25.213 25.205 66.084 25.205 91.297 0v0c25.205-25.213 25.205-66.084 0-91.297l-596.984-596.897c-20.536-20.571-48.413-32.124-77.48-32.112z" />
<glyph unicode="&#xe909;" glyph-name="cross" d="M1024 899.669l-60.331 60.331-451.669-451.669-451.669 451.669-60.331-60.331 451.669-451.669-451.669-451.669 60.331-60.331 451.669 451.669 451.669-451.669 60.331 60.331-451.669 451.669 451.669 451.669z" />
<glyph unicode="&#xe90a;" glyph-name="menu" d="M1024 490.641h-1024v-85.333h1024v85.333zM1024 789.32h-1024v-85.333h1024v85.333zM1024 192h-1024v-85.333h1024v85.333z" />
<glyph unicode="&#xe90b;" glyph-name="small-cross" d="M798.157 673.841l-60.331 60.331-225.835-225.833-225.833 225.833-60.331-60.331 225.833-225.833-225.833-225.835 60.331-60.331 225.833 225.835 225.835-225.835 60.331 60.331-225.835 225.835 225.835 225.833z" />
<glyph unicode="&#xe90c;" glyph-name="sort" d="M1021.623 633.104l-509.611 305.578-509.612-305.578 509.612-305.748 509.611 305.748zM512.013 839.354l343.723-206.251-343.723-206.42-343.724 206.42 343.724 206.251zM1024 364.156l-512-307.2-512 307.2v-99.541l512-307.157 512 307.157v99.541zM1024 548.953l-512-307.2-512 307.2v-99.498l512-307.2 512 307.2v99.498z" />
<glyph unicode="&#xe90d;" glyph-name="search" d="M1023.991-3.699l-267.179 267.179c69.402 84.881 103.526 193.19 95.309 302.525-8.213 109.335-58.138 211.329-139.443 284.887-81.31 73.558-187.776 113.051-297.386 110.31-109.609-2.741-213.971-47.505-291.5-125.034s-122.294-181.891-125.034-291.5c-2.741-109.609 36.752-216.079 110.31-297.385s175.552-131.23 284.887-139.443c109.336-8.218 217.645 25.907 302.526 95.309l267.179-267.179 60.331 60.331zM426.657 191.97c-67.509 0-133.503 20.019-189.635 57.523-56.132 37.508-99.881 90.816-125.716 153.186s-32.594 131.003-19.424 197.215c13.17 66.212 45.679 127.032 93.416 174.768s108.556 80.245 174.768 93.416c66.212 13.17 134.841 6.411 197.211-19.424 62.374-25.835 115.682-69.584 153.186-125.716 37.508-56.132 57.527-122.125 57.527-189.635-0.102-90.496-36.096-177.254-100.087-241.246s-150.75-99.985-241.247-100.087z" />
<glyph unicode="&#xe90e;" glyph-name="profile" d="M896-64.026h-85.333v215.168c-0.034 33.451-13.338 65.523-36.992 89.173-23.65 23.654-55.723 36.958-89.173 36.992h-345.003c-33.451-0.034-65.521-13.338-89.175-36.992-23.653-23.65-36.956-55.723-36.99-89.173v-215.168h-85.333v215.168c0.068 56.073 22.372 109.828 62.022 149.478 39.649 39.646 93.405 61.952 149.477 62.020h345.003c56.073-0.068 109.828-22.374 149.478-62.020 39.646-39.65 61.952-93.406 62.020-149.478v-215.168zM511.996 448.004c-50.633 0-100.125 15.014-142.225 43.14-42.099 28.13-74.911 68.113-94.287 114.891s-24.446 98.251-14.568 147.91c9.878 49.659 34.26 95.274 70.062 131.076s81.417 60.184 131.077 70.062c49.66 9.878 101.133 4.808 147.908-14.568 46.78-19.376 86.763-52.188 114.893-94.287 28.126-42.099 43.14-91.594 43.14-142.226-0.068-67.875-27.059-132.95-75.055-180.943-47.996-47.996-113.071-74.991-180.945-75.055zM511.996 874.669c-33.754 0-66.748-10.010-94.816-28.762-28.066-18.753-49.94-45.408-62.858-76.593s-16.297-65.501-9.712-98.607c6.585-33.106 22.84-63.516 46.708-87.384s54.276-40.122 87.385-46.708c33.105-6.584 67.422-3.206 98.607 9.712s57.839 34.792 76.591 62.858c18.752 28.066 28.762 61.062 28.762 94.817 0 45.263-17.98 88.673-49.984 120.68-32.009 32.006-75.418 49.987-120.683 49.987z" />
<glyph unicode="&#xe90f;" glyph-name="camera" d="M896 789.333h-107.008l-131.669 170.667h-290.688l-131.627-170.667h-107.008c-33.948 0-66.505-13.486-90.51-37.49s-37.49-56.562-37.49-90.51v-725.333h1024v725.333c0 33.948-13.487 66.505-37.491 90.51s-56.563 37.49-90.509 37.49zM408.619 874.667h206.805l65.792-85.333h-338.432l65.835 85.333zM938.667 21.333h-853.333v640c0 11.316 4.495 22.168 12.497 30.17s18.854 12.497 30.17 12.497h768c11.315 0 22.17-4.495 30.17-12.497s12.497-18.854 12.497-30.17v-640zM511.996 618.672c-50.633 0-100.128-15.014-142.227-43.144s-74.911-68.111-94.287-114.89c-19.376-46.775-24.445-98.249-14.568-147.908s34.26-95.275 70.062-131.076c35.802-35.802 81.417-60.186 131.075-70.063 49.66-9.877 101.133-4.809 147.913 14.566 46.775 19.379 86.758 52.19 114.889 94.289s43.145 91.593 43.145 142.225c-0.068 67.874-27.063 132.949-75.055 180.945-47.996 47.994-113.071 74.988-180.945 75.055zM511.996 192.004c-33.754 0-66.752 10.010-94.818 28.762-28.066 18.756-49.941 45.41-62.858 76.595s-16.297 65.502-9.712 98.607c6.585 33.105 22.839 63.514 46.708 87.381 23.868 23.872 54.278 40.124 87.383 46.711 33.105 6.583 67.422 3.204 98.607-9.715 31.185-12.915 57.839-34.79 76.595-62.857 18.752-28.066 28.762-61.065 28.762-94.818 0-45.261-17.98-88.674-49.988-120.678-32.004-32.009-75.418-49.988-120.678-49.988z" />
<glyph unicode="&#xe910;" glyph-name="edit" d="M978.773 914.828c-29.005 28.962-68.322 45.229-109.312 45.229s-80.307-16.267-109.312-45.229l-760.149-760.148v-218.624h218.624l760.149 760.148c28.954 29.012 45.214 68.325 45.214 109.312s-16.26 80.3-45.214 109.312zM183.467 21.389h-98.133v98.133l567.893 567.466 98.133-98.133-567.893-567.466zM918.443 756.535l-106.965-106.965-97.92 98.133 106.923 106.795c13.013 13.013 30.665 20.324 49.067 20.324s36.053-7.311 49.067-20.324c13.013-13.013 20.322-30.663 20.322-49.067s-7.309-36.053-20.322-49.067l-0.171 0.171z" />
<glyph unicode="&#xe911;" glyph-name="top" d="M767.991 298.671c-5.615-0.034-11.183 1.041-16.38 3.166-5.201 2.125-9.929 5.252-13.914 9.207l-195.413 195.84c-3.968 3.998-8.687 7.172-13.884 9.34-5.201 2.163-10.778 3.281-16.41 3.281s-11.209-1.118-16.41-3.281c-5.197-2.167-9.916-5.342-13.884-9.34l-195.414-195.84c-8.034-8.034-18.931-12.548-30.293-12.548s-22.259 4.514-30.293 12.548c-8.034 8.034-12.548 18.931-12.548 30.293 0 5.623 1.108 11.196 3.261 16.393s5.309 9.92 9.287 13.901l195.84 195.412c24.316 23.363 56.73 36.41 90.454 36.41 33.719 0 66.133-13.047 90.453-36.41l195.84-195.412c3.998-3.968 7.172-8.687 9.34-13.888 2.163-5.197 3.281-10.773 3.281-16.405s-1.118-11.209-3.281-16.41c-2.167-5.201-5.342-9.92-9.34-13.884-3.989-3.955-8.717-7.083-13.914-9.207s-10.765-3.2-16.38-3.166z" />
<glyph unicode="&#xe912;" glyph-name="right" d="M657.058 538.451l-195.84 195.84c-7.991 7.947-18.807 12.407-30.080 12.407-11.27 0-22.084-4.46-30.079-12.407-3.999-3.966-7.173-8.685-9.339-13.885s-3.281-10.776-3.281-16.409c0-5.632 1.115-11.209 3.281-16.409s5.34-9.918 9.339-13.885l196.265-195.415c4.002-3.964 7.177-8.683 9.34-13.884 2.167-5.197 3.281-10.773 3.281-16.41 0-5.632-1.114-11.209-3.281-16.405-2.163-5.201-5.338-9.92-9.34-13.888l-196.265-195.413c-8.034-7.974-12.57-18.82-12.61-30.14-0.040-11.324 4.419-22.199 12.397-30.234s18.82-12.57 30.143-12.608c11.324-0.043 22.195 4.42 30.229 12.395l195.84 195.84c23.97 24 37.436 56.533 37.436 90.453s-13.466 66.453-37.436 90.455z" />
<glyph unicode="&#xe913;" glyph-name="left" d="M452.262 417.702c-3.998 3.968-7.172 8.687-9.34 13.888-2.167 5.197-3.281 10.773-3.281 16.405 0 5.636 1.114 11.213 3.281 16.41 2.167 5.201 5.342 9.92 9.34 13.884l195.84 195.415c3.998 3.966 7.172 8.685 9.34 13.885s3.281 10.776 3.281 16.409c0 5.632-1.114 11.209-3.281 16.409s-5.342 9.918-9.34 13.885c-7.996 7.947-18.807 12.407-30.080 12.407s-22.084-4.46-30.080-12.407l-195.84-195.84c-23.97-24.002-37.434-56.535-37.434-90.455s13.464-66.453 37.434-90.453l195.84-195.84c7.949-7.881 18.675-12.326 29.867-12.373 5.615-0.030 11.183 1.045 16.38 3.17 5.197 2.121 9.929 5.252 13.914 9.203 3.998 3.968 7.172 8.687 9.34 13.888 2.167 5.197 3.281 10.773 3.281 16.405 0 5.636-1.114 11.213-3.281 16.41-2.167 5.201-5.342 9.92-9.34 13.884l-195.84 195.413z" />
<glyph unicode="&#xe914;" glyph-name="bottom" d="M798.289 609.708c-3.968 3.999-8.687 7.173-13.884 9.339-5.201 2.166-10.778 3.281-16.41 3.281s-11.209-1.115-16.41-3.281c-5.201-2.166-9.92-5.34-13.884-9.339l-195.413-195.414c-3.968-3.998-8.687-7.172-13.884-9.34-5.201-2.163-10.778-3.281-16.41-3.281s-11.209 1.118-16.41 3.281c-5.201 2.167-9.92 5.342-13.884 9.34l-195.414 195.414c-3.967 3.999-8.686 7.173-13.885 9.339s-10.776 3.281-16.408 3.281c-5.632 0-11.209-1.115-16.409-3.281s-9.918-5.34-13.885-9.339c-7.947-7.994-12.407-18.808-12.407-30.080s4.461-22.086 12.407-30.080l195.84-195.841c24.001-23.97 56.534-37.431 90.454-37.431s66.453 13.461 90.453 37.431l195.84 195.841c7.945 7.994 12.407 18.808 12.407 30.080s-4.463 22.086-12.407 30.080z" />
</font>
</defs>
</svg>
